<svg viewBox="0 0 100 100" xmlns="http://www.w3.org/2000/svg">
  <!-- Gradient definitions -->
  <defs>
    <linearGradient id="bgGradient" x1="0%" y1="0%" x2="100%" y2="100%">
      <stop offset="0%" style="stop-color:#667eea;stop-opacity:1" />
      <stop offset="100%" style="stop-color:#764ba2;stop-opacity:1" />
    </linearGradient>
    <linearGradient id="faceGradient1" x1="0%" y1="0%" x2="100%" y2="100%">
      <stop offset="0%" style="stop-color:#ff9a9e;stop-opacity:1" />
      <stop offset="100%" style="stop-color:#fecfef;stop-opacity:1" />
    </linearGradient>
    <linearGradient id="faceGradient2" x1="0%" y1="0%" x2="100%" y2="100%">
      <stop offset="0%" style="stop-color:#a8edea;stop-opacity:1" />
      <stop offset="100%" style="stop-color:#fed6e3;stop-opacity:1" />
    </linearGradient>
    <filter id="shadow" x="-50%" y="-50%" width="200%" height="200%">
      <feGaussianBlur in="SourceAlpha" stdDeviation="3"/>
      <feOffset dx="2" dy="2" result="offset"/>
      <feFlood flood-color="#000000" flood-opacity="0.3"/>
      <feComposite in2="offset" operator="in"/>
      <feMerge>
        <feMergeNode/>
        <feMergeNode in="SourceGraphic"/>
      </feMerge>
    </filter>
  </defs>
  
  <!-- Background circle -->
  <circle cx="50" cy="50" r="47" fill="url(#bgGradient)" filter="url(#shadow)"/>
  
  <!-- Left face - more refined shape -->
  <ellipse cx="35" cy="45" rx="12" ry="16" fill="url(#faceGradient1)" opacity="0.9"/>
  <ellipse cx="35" cy="42" rx="8" ry="10" fill="white" opacity="0.3"/>
  
  <!-- Right face - more refined shape -->
  <ellipse cx="65" cy="45" rx="12" ry="16" fill="url(#faceGradient2)" opacity="0.9"/>
  <ellipse cx="65" cy="42" rx="8" ry="10" fill="white" opacity="0.3"/>
  
  <!-- Stylized swap arrows -->
  <g stroke="white" stroke-width="2.5" fill="none" opacity="0.9">
    <!-- Curved arrow going right -->
    <path d="M42 35 Q50 25 58 35" marker-end="url(#arrow-right)"/>
    <!-- Curved arrow going left -->  
    <path d="M58 55 Q50 65 42 55" marker-end="url(#arrow-left)"/>
  </g>
  
  <!-- Arrow markers -->
  <defs>
    <marker id="arrow-right" markerWidth="8" markerHeight="6" refX="7" refY="3" orient="auto">
      <polygon points="0 0, 8 3, 0 6" fill="white" opacity="0.9"/>
    </marker>
    <marker id="arrow-left" markerWidth="8" markerHeight="6" refX="7" refY="3" orient="auto">
      <polygon points="0 0, 8 3, 0 6" fill="white" opacity="0.9"/>
    </marker>
  </defs>
  
  <!-- Minimal facial features -->
  <g fill="white" opacity="0.7">
    <!-- Left face eyes -->
    <circle cx="32" cy="42" r="1.5"/>
    <circle cx="38" cy="42" r="1.5"/>
    <!-- Right face eyes -->
    <circle cx="62" cy="42" r="1.5"/>
    <circle cx="68" cy="42" r="1.5"/>
  </g>
  
  <!-- Subtle highlight on faces -->
  <ellipse cx="33" cy="40" rx="2" ry="3" fill="white" opacity="0.4"/>
  <ellipse cx="67" cy="40" rx="2" ry="3" fill="white" opacity="0.4"/>
</svg>
